<svg width="24" height="25" viewBox="0 0 24 25" fill="none" xmlns="http://www.w3.org/2000/svg">
<path d="M12 22.1L10.55 20.78C5.4 16.11 2 13.02 2 9.25C2 6.16 4.42 3.75 7.5 3.75C9.24 3.75 10.91 4.56 12 5.83C13.09 4.56 14.76 3.75 16.5 3.75C19.58 3.75 22 6.16 22 9.25C22 13.02 18.6 16.11 13.45 20.78L12 22.1Z" fill="black"/>
<path d="M12 22.1L10.55 20.78C5.4 16.11 2 13.02 2 9.25C2 6.16 4.42 3.75 7.5 3.75C9.24 3.75 10.91 4.56 12 5.83C13.09 4.56 14.76 3.75 16.5 3.75C19.58 3.75 22 6.16 22 9.25C22 13.02 18.6 16.11 13.45 20.78L12 22.1Z" fill="#6A14DA"/>
</svg>
