<svg width="339" height="272" viewBox="0 0 339 272" fill="none" xmlns="http://www.w3.org/2000/svg">
<path d="M214.437 48.3554L216.967 50.9637C215.088 52.9565 213.352 55.0803 211.773 57.319L208.772 55.1668C210.519 52.7825 212.411 50.5077 214.437 48.3554ZM220.808 42.4287C222.855 40.7867 225.02 39.2963 227.284 37.9694L228.063 37.5177L229.913 40.785L229.187 41.186C227.061 42.429 225.034 43.836 223.127 45.3941L220.808 42.4287ZM204.285 62.3552L207.546 64.2539C206.166 66.6446 204.916 69.1079 203.802 71.633L200.457 70.1188C201.597 67.4665 202.875 64.8751 204.285 62.3552ZM236.092 33.981C238.867 33.0512 241.718 32.3692 244.613 31.943L245.146 35.5771C242.473 35.9707 239.838 36.5954 237.271 37.4443L236.092 33.981ZM197.141 77.9928L200.593 79.2512C199.652 81.7839 198.787 84.4463 198.075 87.1109L194.542 86.0827C195.281 83.3414 196.173 80.6022 197.141 77.9928ZM253.366 31.4002C256.269 31.4424 259.163 31.7162 262.021 32.219L261.397 35.8108C258.715 35.3622 256.002 35.1168 253.282 35.0768L253.366 31.4002ZM192.325 94.4097L195.887 95.2582C195.251 98.001 194.642 100.719 194.109 103.463L190.52 102.743C191.079 99.9729 191.664 97.1778 192.325 94.4097ZM188.92 111.078L192.536 111.722L191.014 120.033L187.398 119.389L188.92 111.078ZM270.5 34.3213C273.307 35.1727 276.042 36.2439 278.679 37.5252L276.902 40.9203C274.467 39.6777 271.938 38.6267 269.339 37.7767L270.5 34.3213ZM185.8 127.622L189.389 128.343C188.831 131.112 188.246 133.907 187.61 136.65L184.022 135.827C184.709 133.136 185.267 130.418 185.8 127.622ZM285.987 42.1311C288.352 43.8322 290.576 45.722 292.635 47.782L290.023 50.3164C288.113 48.3977 286.041 46.647 283.831 45.0835L285.987 42.1311ZM96.0483 226.381C98.7333 225.751 101.42 225.018 104.082 224.207L105.184 227.695C102.426 228.547 99.6622 229.305 96.891 229.968L96.0483 226.381ZM181.938 143.924L185.472 144.901C184.628 147.795 183.787 150.484 182.897 153.069L179.444 151.862C180.28 149.482 181.172 146.794 181.989 143.977L181.938 143.924ZM111.92 221.414C114.483 220.396 117.047 219.275 119.51 218.051L121.204 221.47C118.664 222.719 115.996 223.89 113.355 224.932L111.92 221.414ZM176.388 159.585L179.734 161.048C178.612 163.655 177.336 166.26 175.984 168.787L172.644 166.964C174.121 164.671 175.319 162.142 176.439 159.637L176.388 159.585ZM126.876 214.196C129.265 212.79 131.655 211.332 133.968 209.797L136.028 212.861C133.636 214.473 131.194 215.981 128.728 217.411L126.876 214.196ZM168.566 174.261L171.723 176.261C170.21 178.674 168.603 181.043 166.902 183.368L163.928 181.19C165.584 178.976 167.165 176.633 168.616 174.313L168.566 174.261ZM140.708 204.93C142.87 203.238 145.033 201.443 147.095 199.595L149.625 202.203C147.561 204.205 145.269 205.973 143.03 207.689L140.708 204.93ZM158.604 187.569L161.396 189.924C159.587 192.084 157.598 194.216 155.636 196.271L153.106 193.663C155.114 191.917 156.999 189.835 158.756 187.726L158.604 187.569ZM295.12 56.4595L298.137 54.3424C299.794 56.7192 301.226 59.2454 302.414 61.8883L298.916 63.5097C297.917 61.1038 296.697 58.796 295.271 56.616L295.12 56.4595Z" fill="#FC8649"/>
<path d="M214.437 48.3554L216.967 50.9637C215.088 52.9565 213.352 55.0803 211.773 57.319L208.772 55.1668C210.519 52.7825 212.411 50.5077 214.437 48.3554ZM220.808 42.4287C222.855 40.7867 225.02 39.2963 227.284 37.9694L228.063 37.5177L229.913 40.785L229.187 41.186C227.061 42.429 225.034 43.836 223.127 45.3941L220.808 42.4287ZM204.285 62.3552L207.546 64.2539C206.166 66.6446 204.916 69.1079 203.802 71.633L200.457 70.1188C201.597 67.4665 202.875 64.8751 204.285 62.3552ZM236.092 33.981C238.867 33.0512 241.718 32.3692 244.613 31.943L245.146 35.5771C242.473 35.9707 239.838 36.5954 237.271 37.4443L236.092 33.981ZM197.141 77.9928L200.593 79.2512C199.652 81.7839 198.787 84.4463 198.075 87.1109L194.542 86.0827C195.281 83.3414 196.173 80.6022 197.141 77.9928ZM253.366 31.4002C256.269 31.4424 259.163 31.7162 262.021 32.219L261.397 35.8108C258.715 35.3622 256.002 35.1168 253.282 35.0768L253.366 31.4002ZM192.325 94.4097L195.887 95.2582C195.251 98.001 194.642 100.719 194.109 103.463L190.52 102.743C191.079 99.9729 191.664 97.1778 192.325 94.4097ZM188.92 111.078L192.536 111.722L191.014 120.033L187.398 119.389L188.92 111.078ZM270.5 34.3213C273.307 35.1727 276.042 36.2439 278.679 37.5252L276.902 40.9203C274.467 39.6777 271.938 38.6267 269.339 37.7767L270.5 34.3213ZM185.8 127.622L189.389 128.343C188.831 131.112 188.246 133.907 187.61 136.65L184.022 135.827C184.709 133.136 185.267 130.418 185.8 127.622ZM285.987 42.1311C288.352 43.8322 290.576 45.722 292.635 47.782L290.023 50.3164C288.113 48.3977 286.041 46.647 283.831 45.0835L285.987 42.1311ZM96.0483 226.381C98.7333 225.751 101.42 225.018 104.082 224.207L105.184 227.695C102.426 228.547 99.6622 229.305 96.891 229.968L96.0483 226.381ZM181.938 143.924L185.472 144.901C184.628 147.795 183.787 150.484 182.897 153.069L179.444 151.862C180.28 149.482 181.172 146.794 181.989 143.977L181.938 143.924ZM111.92 221.414C114.483 220.396 117.047 219.275 119.51 218.051L121.204 221.47C118.664 222.719 115.996 223.89 113.355 224.932L111.92 221.414ZM176.388 159.585L179.734 161.048C178.612 163.655 177.336 166.26 175.984 168.787L172.644 166.964C174.121 164.671 175.319 162.142 176.439 159.637L176.388 159.585ZM126.876 214.196C129.265 212.79 131.655 211.332 133.968 209.797L136.028 212.861C133.636 214.473 131.194 215.981 128.728 217.411L126.876 214.196ZM168.566 174.261L171.723 176.261C170.21 178.674 168.603 181.043 166.902 183.368L163.928 181.19C165.584 178.976 167.165 176.633 168.616 174.313L168.566 174.261ZM140.708 204.93C142.87 203.238 145.033 201.443 147.095 199.595L149.625 202.203C147.561 204.205 145.269 205.973 143.03 207.689L140.708 204.93ZM158.604 187.569L161.396 189.924C159.587 192.084 157.598 194.216 155.636 196.271L153.106 193.663C155.114 191.917 156.999 189.835 158.756 187.726L158.604 187.569ZM295.12 56.4595L298.137 54.3424C299.794 56.7192 301.226 59.2454 302.414 61.8883L298.916 63.5097C297.917 61.1038 296.697 58.796 295.271 56.616L295.12 56.4595Z" fill="#872BFF"/>
<path d="M59.9243 234.163C54.8866 235.261 48.9077 237.488 49.1546 238.576C49.4016 239.665 55.756 239.219 60.8026 238.103C61.2614 237.993 61.7112 237.901 62.143 237.801C62.7206 238.222 63.9301 239.091 65.4736 240.193C65.4555 240.184 65.4194 240.166 65.4014 240.157L64.043 240.45C63.8721 240.477 63.7737 240.676 63.8374 240.865L64.1302 242.178C64.1669 242.376 64.3294 242.501 64.5093 242.456L65.8677 242.163C65.8677 242.163 65.9935 242.09 66.0473 242.027L67.6306 241.688C68.9393 242.629 70.3655 243.65 71.7735 244.663L70.4421 244.946C70.2712 244.974 70.1728 245.172 70.2365 245.361L70.5293 246.675C70.566 246.873 70.7285 246.998 70.9084 246.952L72.2668 246.659C72.2668 246.659 72.3926 246.587 72.4464 246.524L73.9757 246.203C77.559 248.765 80.5735 250.888 80.6996 250.906C81.0149 250.95 82.9937 250.447 82.9937 250.447C83.4705 250.347 83.8301 250.21 83.83 250.165C83.8118 250.111 83.2809 250.185 82.8311 250.277L76.9662 244.113C77.3349 244.003 77.5865 243.859 77.5681 243.76C77.5407 243.634 77.1355 243.635 76.6768 243.745L76.6228 243.763L75.4751 242.543C75.8169 242.442 76.0684 242.297 76.0501 242.198C76.0226 242.073 75.6175 242.074 75.1587 242.184L74.1015 241.098L73.603 240.155C74.0167 240.045 74.3403 239.891 74.3219 239.792C74.2945 239.666 73.8893 239.667 73.4306 239.777L73.4125 239.768L72.4156 237.926C72.8294 237.817 73.1529 237.662 73.1165 237.555C73.0891 237.429 72.684 237.43 72.2252 237.54L71.3188 235.832C74.6921 235.055 76.0234 234.726 78.5241 234.168C81.043 233.619 83.4352 232.917 85.4224 232.217C87.3899 233.596 91.2441 236.382 91.2441 236.382L92.6839 236.197L89.8723 230.4C90.2946 230.183 90.6271 230.011 90.8426 229.848C91.8679 229.547 92.4972 229.32 92.4789 229.221C92.4605 229.122 91.8125 229.16 90.7867 229.326C90.5165 229.282 90.1114 229.283 89.5982 229.276L89.746 222.766L88.352 223.177C88.352 223.177 85.847 227.597 84.6748 229.6C82.6409 229.805 80.3011 230.083 77.8267 230.452C74.7051 231.13 73.3196 231.387 70.4408 231.982L70.56 230.064C71.0457 229.946 71.3962 229.782 71.3688 229.656C71.3504 229.557 70.9992 229.541 70.5584 229.614L70.6858 227.498L70.7039 227.507C71.1896 227.388 71.5491 227.207 71.5127 227.099C71.4943 227 71.1251 226.974 70.7023 227.057L70.7525 226.003L71.2425 224.561C71.7193 224.46 72.0788 224.279 72.0513 224.153C72.033 224.054 71.7538 224.028 71.3849 224.092L71.9284 222.497L71.9644 222.515C72.4502 222.396 72.8096 222.215 72.7822 222.089C72.7638 221.99 72.4577 221.973 72.0888 222.037L74.8599 213.997C75.3006 213.878 75.8223 213.732 75.8221 213.687C75.8039 213.633 75.4259 213.671 74.9492 213.771C74.9492 213.771 72.9248 214.139 72.6824 214.311C72.5836 214.374 70.7314 217.568 68.5303 221.375L67.001 221.695C67.001 221.695 66.8567 221.624 66.7847 221.633L65.4263 221.926C65.2553 221.954 65.157 222.152 65.2207 222.341L65.5135 223.654C65.5502 223.852 65.7127 223.978 65.8926 223.932L67.224 223.648C66.3651 225.155 65.5062 226.661 64.692 228.078L63.1087 228.416C63.1087 228.416 62.9644 228.345 62.8924 228.354L61.5341 228.647C61.3631 228.675 61.2648 228.873 61.3285 229.062L61.6213 230.375C61.658 230.573 61.8205 230.699 62.0004 230.653L63.3588 230.36C63.3588 230.36 63.3766 230.324 63.4306 230.306C62.4911 231.93 61.7664 233.211 61.4086 233.842C60.9768 233.943 60.527 234.034 60.0502 234.135L59.9243 234.163Z" fill="#872BFF"/>
</svg>
