<svg width="16" height="20" viewBox="0 0 16 20" fill="none" xmlns="http://www.w3.org/2000/svg">
<path d="M7.96918 10C8.50391 10 8.96182 9.804 9.34293 9.412C9.7234 9.02067 9.91363 8.55 9.91363 8C9.91363 7.45 9.7234 6.979 9.34293 6.587C8.96182 6.19567 8.50391 6 7.96918 6C7.43446 6 6.97687 6.19567 6.59641 6.587C6.21529 6.979 6.02474 7.45 6.02474 8C6.02474 8.55 6.21529 9.02067 6.59641 9.412C6.97687 9.804 7.43446 10 7.96918 10ZM7.96918 20C5.36039 17.7167 3.41205 15.5957 2.12418 13.637C0.835665 11.679 0.191406 9.86667 0.191406 8.2C0.191406 5.7 0.973397 3.70833 2.53738 2.225C4.10071 0.741667 5.91131 0 7.96918 0C10.0271 0 11.8377 0.741667 13.401 2.225C14.965 3.70833 15.747 5.7 15.747 8.2C15.747 9.86667 15.103 11.679 13.8152 13.637C12.5266 15.5957 10.578 17.7167 7.96918 20Z" fill="url(#paint0_linear_105_2186)"/>
<defs>
<linearGradient id="paint0_linear_105_2186" x1="7.96918" y1="0" x2="12.1408" y2="19.3781" gradientUnits="userSpaceOnUse">
<stop stop-color="#C82BFF"/>
<stop offset="1" stop-color="#660BDD"/>
</linearGradient>
</defs>
</svg>
