<svg width="21" height="18" viewBox="0 0 21 18" fill="none" xmlns="http://www.w3.org/2000/svg">
<path d="M18.1914 4.77964L10.1914 10.0547L2.19141 4.77964V2.66961L10.1914 7.9447L18.1914 2.66961M18.1914 0.55957H2.19141C1.08141 0.55957 0.191406 1.49854 0.191406 2.66961V15.3298C0.191406 15.8894 0.40212 16.4261 0.777193 16.8219C1.15227 17.2176 1.66097 17.4399 2.19141 17.4399H18.1914C18.7218 17.4399 19.2305 17.2176 19.6056 16.8219C19.9807 16.4261 20.1914 15.8894 20.1914 15.3298V2.66961C20.1914 2.10999 19.9807 1.57329 19.6056 1.17759C19.2305 0.781877 18.7218 0.55957 18.1914 0.55957Z" fill="url(#paint0_linear_105_2182)"/>
<defs>
<linearGradient id="paint0_linear_105_2182" x1="10.1914" y1="0.55957" x2="12.5625" y2="17.3378" gradientUnits="userSpaceOnUse">
<stop stop-color="#C82BFF"/>
<stop offset="1" stop-color="#660BDD"/>
</linearGradient>
</defs>
</svg>
