<svg width="21" height="20" viewBox="0 0 21 20" fill="none" xmlns="http://www.w3.org/2000/svg">
<path d="M19.0803 10C18.784 10 18.5203 9.89333 18.2892 9.68C18.0573 9.46741 17.9229 9.2037 17.8859 8.88889C17.6451 7.16667 16.9184 5.69889 15.7059 4.48556C14.4925 3.27296 13.0247 2.5463 11.3025 2.30556C10.9877 2.26852 10.724 2.13889 10.5114 1.91667C10.2981 1.69444 10.1914 1.42593 10.1914 1.11111C10.1914 0.796296 10.3025 0.532222 10.5247 0.318889C10.747 0.106296 11.0062 0.0185185 11.3025 0.0555555C13.6359 0.314815 15.6266 1.26852 17.2747 2.91667C18.9229 4.56482 19.8766 6.55556 20.1359 8.88889C20.1729 9.18519 20.0847 9.44444 19.8714 9.66667C19.6588 9.88889 19.3951 10 19.0803 10ZM14.4414 10C14.2007 10 13.9877 9.91667 13.8025 9.75C13.6173 9.58333 13.4784 9.36111 13.3859 9.08333C13.2377 8.5463 12.9555 8.06926 12.5392 7.65222C12.1221 7.23593 11.6451 6.9537 11.1081 6.80556C10.8303 6.71296 10.6081 6.57407 10.4414 6.38889C10.2747 6.2037 10.1914 5.98148 10.1914 5.72222C10.1914 5.35185 10.321 5.05074 10.5803 4.81889C10.8396 4.58778 11.1266 4.50926 11.4414 4.58333C12.4784 4.82407 13.3721 5.31926 14.1225 6.06889C14.8721 6.81926 15.3673 7.71296 15.6081 8.75C15.6821 9.06481 15.5988 9.35185 15.3581 9.61111C15.1173 9.87037 14.8118 10 14.4414 10ZM19.0247 20C16.6359 20 14.3073 19.4674 12.0392 18.4022C9.7703 17.3378 7.76104 15.9304 6.01141 14.18C4.26104 12.4304 2.85363 10.4211 1.78918 8.15222C0.723999 5.88407 0.191406 3.55556 0.191406 1.16667C0.191406 0.833334 0.302517 0.555556 0.52474 0.333333C0.746962 0.111111 1.02474 0 1.35807 0H5.85807C6.11733 0 6.34881 0.0833332 6.55252 0.25C6.75622 0.416667 6.87659 0.62963 6.91363 0.888889L7.63585 4.77778C7.67289 5.03704 7.66844 5.27296 7.62252 5.48556C7.57585 5.69889 7.46918 5.88889 7.30252 6.05556L4.63585 8.77778C5.41363 10.1111 6.38585 11.3611 7.55252 12.5278C8.71918 13.6944 10.0062 14.7037 11.4136 15.5556L14.0247 12.9444C14.1914 12.7778 14.4092 12.6526 14.6781 12.5689C14.9462 12.4859 15.2099 12.463 15.4692 12.5L19.3025 13.2778C19.5618 13.3333 19.7747 13.4581 19.9414 13.6522C20.1081 13.847 20.1914 14.0741 20.1914 14.3333V18.8333C20.1914 19.1667 20.0803 19.4444 19.8581 19.6667C19.6359 19.8889 19.3581 20 19.0247 20Z" fill="url(#paint0_linear_105_2178)"/>
<defs>
<linearGradient id="paint0_linear_105_2178" x1="10.1914" y1="0" x2="13.4938" y2="19.7232" gradientUnits="userSpaceOnUse">
<stop stop-color="#C82BFF"/>
<stop offset="1" stop-color="#660BDD"/>
</linearGradient>
</defs>
</svg>
